<svg xmlns="http://www.w3.org/2000/svg" viewBox="0 0 1024 1024" width="1024" height="1024"><defs><linearGradient id="xy-bg" gradientUnits="userSpaceOnUse" x1="993.12" y1="336.89" x2="30.88" y2="687.11"><stop offset="0" stop-color="#a06bf0"/><stop offset="1" stop-color="#6427c0"/></linearGradient><mask id="xy-cards" maskUnits="userSpaceOnUse" x="0" y="0" width="1024" height="1024"><g fill="#fff"><rect x="416.90" y="456.70" width="89.10" height="86.60" rx="16.00" ry="16.00"/><rect x="518.00" y="456.70" width="89.10" height="110.60" rx="16.00" ry="16.00"/></g><g fill="#000"><path d="M190 279 14 546H183L289 372L396 546H565L387 279L573 0H404L289 187L174 0H5Z" transform="translate(432.55 527.30) scale(0.100000 -0.100000)"/><path d="M0 546H159L262 234Q269 212 275.5 187.5Q282 163 285 141H289Q292 162 299.5 187.0Q307 212 314 234L415 546H571L347 -50Q313 -142 260.5 -191.0Q208 -240 111 -240Q85 -240 66.5 -237.5Q48 -235 35 -232V-113Q45 -115 61.0 -117.0Q77 -119 94 -119Q140 -119 165.0 -92.5Q190 -66 205 -27L217 4Z" transform="translate(534.00 527.30) scale(0.100000 -0.100000)"/></g></mask></defs><rect x="0" y="0" width="1024" height="1024" rx="184.00" ry="184.00" fill="url(#xy-bg)"/><g transform="translate(512 512) scale(4.65) translate(-512 -512)"><rect x="0" y="0" width="1024" height="1024" fill="#ffffff" mask="url(#xy-cards)"/></g></svg>